<?xml version="1.0" encoding="UTF-8" standalone="no"?>
<svg
   xmlns:dc="http://purl.org/dc/elements/1.1/"
   xmlns:cc="http://creativecommons.org/ns#"
   xmlns:rdf="http://www.w3.org/1999/02/22-rdf-syntax-ns#"
   xmlns:svg="http://www.w3.org/2000/svg"
   xmlns="http://www.w3.org/2000/svg"
   id="SVGRoot"
   version="1.1"
   viewBox="0 0 128 64"
   height="16px"
   width="16px">
  <defs
     id="defs1636" />
  <metadata
     id="metadata1639">
    <rdf:RDF>
      <cc:Work
         rdf:about="">
        <dc:format>image/svg+xml</dc:format>
        <dc:type
           rdf:resource="http://purl.org/dc/dcmitype/StillImage" />
        <dc:title></dc:title>
      </cc:Work>
    </rdf:RDF>
  </metadata>
  <g
     id="layer1">
    <g
       transform="matrix(0.96892681,0,0,0.9719904,4.1687693,7.9082255)"
       id="g2235">
      <g
         id="g1027"
         transform="matrix(3.7795276,0,0,3.7795276,-272.43557,-434.74344)">
        <g
           id="g967">
          <path
             style="fill:#484761;fill-opacity:1;stroke:none;stroke-width:0.1;stroke-linecap:butt;stroke-linejoin:miter;stroke-miterlimit:4;stroke-dasharray:none;stroke-opacity:1"
             d="m 79.930293,116.39261 c -1.060634,-1.61419 -3.447687,-2.36466 -7.217124,-2.21497 v 1.55915 l -1.299295,0.0473 -0.02363,10.55971 0.944941,-0.0236 0.02363,2.008 c 3.426856,-0.61286 5.925219,-2.90849 7.417784,-1.6064 -2.659055,-2.58799 -4.462565,-2.73157 -6.260232,-2.85845 l -0.07087,-9.28404 c 2.237008,-0.12452 4.435232,0.12586 6.484796,1.8133 z"
             id="path876" />
          <rect
             style="opacity:1;fill:#484761;fill-opacity:1;fill-rule:evenodd;stroke:none;stroke-width:0.1;stroke-miterlimit:4;stroke-dasharray:none;stroke-opacity:1"
             id="rect880"
             width="0.55124336"
             height="0.55959558"
             x="115.82259"
             y="85.012688"
             transform="rotate(21.80141)" />
          <rect
             style="opacity:1;fill:#484761;fill-opacity:1;fill-rule:evenodd;stroke:none;stroke-width:0.17607406;stroke-miterlimit:4;stroke-dasharray:none;stroke-opacity:1"
             id="rect880-5"
             width="0.96831232"
             height="0.98762673"
             x="116.09711"
             y="82.59008"
             transform="matrix(0.92763901,0.37347806,-0.36931126,0.92930576,0,0)" />
          <rect
             style="opacity:1;fill:#484761;fill-opacity:1;fill-rule:evenodd;stroke:none;stroke-width:0.25462231;stroke-miterlimit:4;stroke-dasharray:none;stroke-opacity:1"
             id="rect880-5-8"
             width="1.4286511"
             height="1.3998591"
             x="119.26569"
             y="82.94239"
             transform="matrix(0.93450078,0.35596109,-0.38726877,0.92196687,0,0)" />
          <rect
             style="opacity:1;fill:#484761;fill-opacity:1;fill-rule:evenodd;stroke:none;stroke-width:0.3429279;stroke-miterlimit:4;stroke-dasharray:none;stroke-opacity:1"
             id="rect880-5-8-9"
             width="1.8642886"
             height="1.9458534"
             x="118.73746"
             y="80.977264"
             transform="matrix(0.92341027,0.38381437,-0.35924328,0.93324395,0,0)" />
          <rect
             style="opacity:1;fill:#484761;fill-opacity:1;fill-rule:evenodd;stroke:none;stroke-width:0.41822058;stroke-miterlimit:4;stroke-dasharray:none;stroke-opacity:1"
             id="rect880-5-8-9-6"
             width="2.319344"
             height="2.3262868"
             x="118.79056"
             y="78.414513"
             transform="matrix(0.93057974,0.36608926,-0.37674408,0.92631739,0,0)" />
          <rect
             style="opacity:1;fill:#484761;fill-opacity:1;fill-rule:evenodd;stroke:none;stroke-width:0.17607406;stroke-miterlimit:4;stroke-dasharray:none;stroke-opacity:1"
             id="rect880-5-7"
             width="0.96831232"
             height="0.98762673"
             x="117.57083"
             y="83.669205"
             transform="matrix(0.92763901,0.37347806,-0.36931127,0.92930576,0,0)" />
          <path
             style="fill:#484761;fill-opacity:1;stroke:none;stroke-width:0.05;stroke-linecap:butt;stroke-linejoin:miter;stroke-miterlimit:4;stroke-dasharray:none;stroke-opacity:1"
             d="m 81.183119,124.71138 1.319641,-1.62032 c 0.746287,0.91116 2.644527,1.42505 2.706106,0.86862 0.830198,-0.80792 -3.335917,-0.49494 -2.856445,-3.44109 0.54349,-2.96934 4.915331,-1.7363 6.1472,-0.81851 l -1.336347,1.58691 c -1.460527,-1.09441 -2.278172,-0.78924 -2.472243,-0.61806 -0.500067,1.29996 3.917935,0.14794 2.706103,3.90881 -1.254994,2.04853 -4.324893,1.77192 -6.214015,0.13364 z"
             id="path957" />
        </g>
        <path
           id="path969"
           transform="scale(0.26458333)"
           d="m 343.75,454.64844 c -3.13769,-0.0424 -5.89467,0.67592 -8.53711,1.07617 l 1.10547,5.87109 c 3.5303,-0.79083 5.75618,-2.15388 8.83789,0.12696 l -0.0625,2.30468 c -11.71803,-2.27489 -12.95321,3.19787 -13.48633,4.65235 -0.44409,2.46202 -0.19749,2.50413 -0.17969,3.34961 2.47517,5.5706 7.66597,4.39785 10.49219,1.38281 l 0.53516,-0.13281 -0.49024,1.875 8.30274,0.22265 c 1.39187,-8.29254 6.70689,-16.80031 -0.40235,-19.59765 -2.21352,-0.80527 -4.23262,-1.10541 -6.11523,-1.13086 z m -1.30664,12.34375 c 0.64178,0.007 1.30091,0.0479 1.88672,0.0137 -0.62219,2.84288 -1.71281,4.90009 -4.67188,3.82031 -0.90192,-3.56695 0.8598,-3.85514 2.78516,-3.83398 z"
           style="fill:#484761;fill-opacity:1;stroke:none;stroke-width:0.18897638;stroke-linecap:butt;stroke-linejoin:miter;stroke-miterlimit:4;stroke-dasharray:none;stroke-opacity:1" />
        <path
           id="path974"
           d="m 94.162395,120.36825 2.388721,0.0501 0.100225,2.73952 1.620321,-2.75622 2.355318,-0.0334 -3.591438,5.46232 -2.054635,-0.0334 z"
           style="fill:#484761;fill-opacity:1;stroke:none;stroke-width:0.26458332px;stroke-linecap:butt;stroke-linejoin:miter;stroke-opacity:1" />
        <path
           id="path969-2"
           d="m 102.87395,120.32921 c -0.83018,-0.0112 -1.55964,0.17884 -2.25878,0.28473 l 0.29249,1.5534 c 0.93406,-0.20924 1.52299,-0.56988 2.33836,0.0336 l -0.0165,0.60978 c -3.1004,-0.6019 -3.427209,0.8461 -3.568264,1.23093 -0.117498,0.65141 -0.05225,0.66255 -0.04754,0.88625 0.654894,1.47389 2.028294,1.1636 2.776064,0.36587 l 0.14159,-0.0351 -0.12971,0.4961 2.19677,0.0589 c 0.36826,-2.19407 1.77453,-4.44509 -0.10646,-5.18522 -0.58566,-0.21306 -1.11988,-0.29247 -1.61798,-0.2992 z m -0.34572,3.26595 c 0.16981,0.002 0.3442,0.0127 0.4992,0.004 -0.16463,0.75218 -0.45319,1.29649 -1.23611,1.01079 -0.23863,-0.94375 0.22749,-1.02 0.73691,-1.0144 z"
           style="fill:#484761;fill-opacity:1;stroke:none;stroke-width:0.05;stroke-linecap:butt;stroke-linejoin:miter;stroke-miterlimit:4;stroke-dasharray:none;stroke-opacity:1" />
      </g>
    </g>
  </g>
</svg>
